<svg xmlns="http://www.w3.org/2000/svg" width="20.63" height="19.719" viewBox="0 0 20.63 19.719">
  <defs>
    <style>
      .cls-1 {
        fill: #fff;
        fill-rule: evenodd;
      }
    </style>
  </defs>
  <path id="Корзина" class="cls-1" d="M1092.58,33.46l-1.21,8.912a2.025,2.025,0,0,1-1.88,1.635h-10.88a2.025,2.025,0,0,1-1.88-1.635l-1.47-10.287a3.738,3.738,0,0,1-.13-1.055H1073a1,1,0,0,1,0-2h4a0.992,0.992,0,0,1,.1,1.98h13.97C1092.17,31.01,1092.84,32.141,1092.58,33.46Zm-13.85,8.518-1.31-9h13.2l-0.03.2-1.18,8.788a0.033,0.033,0,0,0-.01.014h-10.67Zm0.52,3.009a1.874,1.874,0,1,1-1.88,1.874A1.874,1.874,0,0,1,1079.25,44.987Zm9,0a1.874,1.874,0,1,1-1.88,1.874A1.874,1.874,0,0,1,1088.25,44.987Z" transform="translate(-1072 -29.031)"/>
</svg>
