<svg xmlns="http://www.w3.org/2000/svg" width="107.622" height="36.69" viewBox="0 0 107.622 36.69">
  <defs>
    <style>
      .cls-1 {
        fill: #fff;
        fill-rule: evenodd;
      }
    </style>
  </defs>
  <path id="Лого" class="cls-1" d="M1029.6,2359.28a1.983,1.983,0,0,0,.55-0.1v1.33a3.162,3.162,0,0,1-1.17.21,1.663,1.663,0,0,1-1.66-.97,4.791,4.791,0,0,1-3.13,1.07,2.6,2.6,0,0,1-2.9-2.54c0-2.13,1.97-2.78,3.7-2.78a10.909,10.909,0,0,1,2.16.24v-0.29c0-1.04-.76-1.77-2.18-1.77a7.336,7.336,0,0,0-2.99.64v-1.69a10.041,10.041,0,0,1,3.18-.55c2.35,0,3.84,1.12,3.84,3.63v2.97a0.533,0.533,0,0,0,.6.6m-6.41-1.12a1.348,1.348,0,0,0,1.55,1.23,3.373,3.373,0,0,0,2.41-.99V2357a9.984,9.984,0,0,0-1.8-.21c-1.05,0-2.16.33-2.16,1.37m12.3-6.08a4.919,4.919,0,0,1,2.56.64v1.69a4.059,4.059,0,0,0-2.3-.69,2.737,2.737,0,1,0-.03,5.46,5,5,0,0,0,2.42-.64v1.71a6.285,6.285,0,0,1-2.75.57,4.192,4.192,0,0,1-4.48-4.3,4.3,4.3,0,0,1,4.58-4.44m12.12,7.2a1.983,1.983,0,0,0,.55-0.1v1.33a3.162,3.162,0,0,1-1.17.21,1.663,1.663,0,0,1-1.66-.97,4.791,4.791,0,0,1-3.13,1.07,2.6,2.6,0,0,1-2.9-2.54c0-2.13,1.97-2.78,3.69-2.78a11.01,11.01,0,0,1,2.17.24v-0.29c0-1.04-.77-1.77-2.18-1.77a7.336,7.336,0,0,0-2.99.64v-1.69a9.985,9.985,0,0,1,3.18-.55c2.35,0,3.83,1.12,3.83,3.63v2.97a0.54,0.54,0,0,0,.61.6m-6.41-1.12a1.348,1.348,0,0,0,1.55,1.23,3.39,3.39,0,0,0,2.41-.99V2357a10.093,10.093,0,0,0-1.8-.21c-1.06,0-2.16.33-2.16,1.37m16.67-9.66v12.1h-1.65v-1.32a3.876,3.876,0,0,1-3.18,1.54,4.378,4.378,0,0,1,0-8.74,3.861,3.861,0,0,1,2.99,1.29v-4.87h1.84Zm-4.51,5.2a2.756,2.756,0,0,0,0,5.5,2.89,2.89,0,0,0,2.65-1.75v-2.02a2.905,2.905,0,0,0-2.65-1.73m10.51-1.62c3.3,0,4.44,2.66,3.91,5.06h-6.24c0.21,1.49,1.66,2.11,3.18,2.11a6.036,6.036,0,0,0,2.63-.59v1.59a7.192,7.192,0,0,1-2.98.57c-2.54,0-4.7-1.45-4.7-4.37a4.153,4.153,0,0,1,4.2-4.37m0.09,1.53a2.269,2.269,0,0,0-2.44,2.15h4.6a1.964,1.964,0,0,0-2.16-2.15m5.7,6.99v-8.3h1.64v1.04a3.806,3.806,0,0,1,2.77-1.26,2.813,2.813,0,0,1,2.59,1.33,4.106,4.106,0,0,1,2.9-1.33,3.042,3.042,0,0,1,3.15,3.33v5.19h-1.85v-5.14a1.577,1.577,0,0,0-1.64-1.74,2.774,2.774,0,0,0-2.06,1.12,5.459,5.459,0,0,1,.04.57v5.19h-1.85v-5.14a1.577,1.577,0,0,0-1.64-1.74,2.919,2.919,0,0,0-2.2,1.28v5.6h-1.85Zm21.21-8.3h1.93l-3.89,9.42c-0.89,2.16-2.07,2.89-3.33,2.89a5.088,5.088,0,0,1-1.09-.14v-1.58a2.787,2.787,0,0,0,.85.13c0.9,0,1.57-.64,2.05-1.94l0.18-.41-3.94-8.37h1.97l2.8,6.26Zm-67.14-18.33v4.72a3.8,3.8,0,0,1,2.68-1.14,3.231,3.231,0,0,1,3.42,3.39v5.13h-1.85v-4.89a1.8,1.8,0,0,0-1.93-1.99,2.927,2.927,0,0,0-2.32,1.39v5.49h-1.85v-12.1h1.85Zm11.17,0.85v2.96h3.01v1.62h-3.01v3.8c0,1.09.5,1.45,1.57,1.45a4.608,4.608,0,0,0,1.68-.32v1.59a6.9,6.9,0,0,1-2.23.36,2.539,2.539,0,0,1-2.85-2.73v-4.15h-1.49v-1.62h1.49v-2.51Zm5.37,11.25v-8.29h1.64v1.03a3.806,3.806,0,0,1,2.77-1.26,2.833,2.833,0,0,1,2.59,1.33,4.15,4.15,0,0,1,2.91-1.33,3.048,3.048,0,0,1,3.14,3.34v5.18h-1.85v-5.13a1.585,1.585,0,0,0-1.64-1.75,2.783,2.783,0,0,0-2.06,1.13,5.459,5.459,0,0,1,.04.57v5.18h-1.85v-5.13a1.585,1.585,0,0,0-1.64-1.75,2.948,2.948,0,0,0-2.2,1.28v5.6h-1.85Zm15.76,0h1.84v-12.1h-1.84v12.1Zm-56.207-13.52-0.152-.02-14.484,1.52v26.55l14.484,8.61,14.489-8.61v-26.55Zm12.437,26.97-12.589,7.49-12.589-7.49v-10.88l12.535,7.46,0.021,1.35-8.6-5.12-0.013,1.32,8.634,5.18,0.021,1.39-8.631-5.13-0.012,1.31,8.633,5.19,8.719-5.22v-1.31h-0.01v-4.29l3.88-2.32v11.07Zm-0.01-12.48-3.44,2.03-1.59.94-7.586-4.51-0.013,1.31,6.479,3.86-0.06.03-0.13.08-0.93.54-5.346-3.18-0.013,1.31,4.219,2.52-0.99.66-0.03.02-3.186-1.88-0.013,1.31,2.089,1.23-2.128,1.28-12.473-7.41,12.491-7.51h0Zm0.01-1.32-12.657-7.46h0l-12.518,7.45v-9.95l12.589-1.32,12.589,1.32v9.96Z" transform="translate(-985.188 -2332.53)"/>
</svg>
