<svg xmlns="http://www.w3.org/2000/svg" width="47.375" height="47.38" viewBox="0 0 47.375 47.38">
  <defs>
    <style>
      .cls-1 {
        fill: #323232;
        fill-rule: evenodd;
      }
    </style>
  </defs>
  <path id="Листик" class="cls-1" d="M71.437,1499.62s-22.24-10.18,0-32.75C93.677,1489.44,71.437,1499.62,71.437,1499.62Zm7.516-17.18-6.536,4.16h0l-0.021,3.68,6.894-4.41A13.37,13.37,0,0,0,78.953,1482.44Zm-15.39,3.19,6.833,4.48v-3.62l-6.453-4.15A13.622,13.622,0,0,0,63.563,1485.63Zm6.833-1.52v-3.63L66,1477.1a21.756,21.756,0,0,0-1.464,3.24Zm0-6.09v-7.04a39.184,39.184,0,0,0-3.356,4.42Zm2,0.28,3.629-2.6a39.493,39.493,0,0,0-3.629-4.82v7.42Zm0.021,2.3h0l-0.021,3.68,5.981-3.85a21.714,21.714,0,0,0-1.337-3.01Zm6.443,7.9-6.443,4.1h0l-0.021,4.16A15.3,15.3,0,0,0,78.859,1488.5Zm-8.463,8.2v-4.21l-6.417-4.13C65.085,1492.5,68.3,1495.29,70.4,1496.7Zm1.1-36.9a23.7,23.7,0,1,1-23.7,23.7A23.7,23.7,0,0,1,71.5,1459.8Zm0,45.4a21.7,21.7,0,1,1,21.7-21.7A21.722,21.722,0,0,1,71.5,1505.2Z" transform="translate(-47.813 -1459.81)"/>
</svg>
