<svg xmlns="http://www.w3.org/2000/svg" width="31.376" height="31.41" viewBox="0 0 31.376 31.41">
  <defs>
    <style>
      .cls-1 {
        fill: #fff;
        fill-rule: evenodd;
        opacity: 0.8;
      }
    </style>
  </defs>
  <path id="Инста" class="cls-1" d="M95.865,2352.23a15.69,15.69,0,1,1-15.692,15.69A15.688,15.688,0,0,1,95.865,2352.23Zm6.271,23.61a1.745,1.745,0,0,0,1.745-1.75v-12.31a1.743,1.743,0,0,0-1.745-1.74H89.809a1.743,1.743,0,0,0-1.745,1.74v12.31a1.745,1.745,0,0,0,1.745,1.75h12.328Zm-1.375-9.1a4.921,4.921,0,1,1-9.529,0h-1.38v6.78a0.609,0.609,0,0,0,.611.61h11.065a0.609,0.609,0,0,0,.612-0.61v-6.78h-1.38ZM96,2365.13a2.848,2.848,0,1,1,0,5.68A2.84,2.84,0,0,1,96,2365.13Zm3.7-3.31h1.865a0.608,0.608,0,0,1,.611.61v1.86a0.608,0.608,0,0,1-.611.61H99.7a0.609,0.609,0,0,1-.611-0.61v-1.86A0.609,0.609,0,0,1,99.7,2361.82Z" transform="translate(-80.188 -2352.22)"/>
</svg>
