<svg xmlns="http://www.w3.org/2000/svg" width="31.375" height="31.41" viewBox="0 0 31.375 31.41">
  <defs>
    <style>
      .cls-1 {
        fill: #fff;
        fill-rule: evenodd;
        opacity: 0.8;
      }
    </style>
  </defs>
  <path id="ВК" class="cls-1" d="M193.865,2352.23a15.69,15.69,0,1,1-15.692,15.69A15.687,15.687,0,0,1,193.865,2352.23Zm5.967,18.25a3.1,3.1,0,0,0-.757-2.2,3.7,3.7,0,0,0-2.016-1.09v-0.07a2.881,2.881,0,0,0,1.371-1.14,3.211,3.211,0,0,0,.5-1.77,3.133,3.133,0,0,0-.362-1.52,2.6,2.6,0,0,0-1.091-1.05,4.522,4.522,0,0,0-1.446-.48,17.993,17.993,0,0,0-2.269-.11h-4.8v13.59H194.4a8.909,8.909,0,0,0,2.332-.25,4.783,4.783,0,0,0,1.686-.86,3.684,3.684,0,0,0,1.032-1.27,3.909,3.909,0,0,0,.383-1.78h0Zm-4.372-5.59a1.517,1.517,0,0,0-.169-0.67,1,1,0,0,0-.527-0.5,2.111,2.111,0,0,0-.8-0.17c-0.308,0-.766-0.01-1.374-0.01h-0.237v2.88h0.43c0.583,0,.994-0.01,1.228-0.02a2.044,2.044,0,0,0,.727-0.19,1.129,1.129,0,0,0,.563-0.53,1.9,1.9,0,0,0,.157-0.79h0Zm0.856,5.53a1.673,1.673,0,0,0-.255-0.99,1.533,1.533,0,0,0-.767-0.54,2.658,2.658,0,0,0-.853-0.13c-0.362-.01-0.849-0.01-1.456-0.01h-0.63v3.4h0.184c0.888,0,1.5-.01,1.842-0.02a2.867,2.867,0,0,0,1.041-.24,1.381,1.381,0,0,0,.68-0.59A1.813,1.813,0,0,0,196.316,2370.42Z" transform="translate(-178.188 -2352.22)"/>
</svg>
